<?xml version="1.0" standalone="no"?>
<!DOCTYPE svg PUBLIC "-//W3C//DTD SVG 20010904//EN"
 "http://www.w3.org/TR/2001/REC-SVG-20010904/DTD/svg10.dtd">
<svg version="1.0" xmlns="http://www.w3.org/2000/svg"
 width="301.000000pt" height="254.000000pt" viewBox="0 0 301.000000 254.000000"
 preserveAspectRatio="xMidYMid meet">
<metadata>
Created by potrace 1.15, written by Peter Selinger 2001-2017
</metadata>
<g transform="translate(0.000000,254.000000) scale(0.100000,-0.100000)"
fill="#000000" stroke="none">
<path d="M1565 2516 c-98 -29 -192 -64 -224 -84 -33 -22 -138 -131 -188 -194
-47 -61 -57 -82 -76 -171 -16 -71 -14 -272 3 -292 6 -7 12 -50 14 -96 3 -93 8
-111 43 -152 13 -16 23 -38 24 -50 0 -12 3 -16 6 -9 3 8 15 -9 29 -37 13 -28
27 -51 32 -51 5 0 12 -10 15 -22 4 -12 9 -19 13 -15 9 9 64 -31 64 -46 0 -7 7
-24 14 -39 14 -26 13 -29 -5 -39 -15 -7 -28 -6 -51 5 -40 21 -45 15 -16 -19
20 -23 27 -25 50 -16 69 26 14 -87 -120 -247 -40 -48 -47 -52 -87 -52 -40 0
-86 -14 -267 -84 -36 -14 -126 -37 -200 -51 -208 -40 -232 -48 -270 -90 -42
-49 -91 -115 -84 -115 8 0 -48 -159 -74 -210 -12 -25 -50 -83 -84 -129 -58
-81 -61 -88 -63 -148 l-2 -63 966 0 c795 0 964 2 960 13 -3 7 -44 78 -93 158
-48 79 -111 184 -141 232 -29 49 -64 110 -78 136 -34 68 -143 241 -170 271
-27 29 -65 91 -65 104 0 6 12 -1 28 -15 81 -74 281 -179 341 -179 21 0 62 -8
92 -17 30 -9 57 -16 61 -15 4 1 5 -5 2 -13 -9 -23 27 -95 48 -95 22 0 48 -53
49 -102 1 -38 10 -63 24 -64 6 0 27 -4 47 -8 33 -7 40 -5 57 15 l19 24 11 -28
c14 -35 14 -60 1 -52 -6 4 -10 -11 -10 -39 0 -24 -3 -52 -7 -62 -5 -13 -2 -16
8 -12 10 4 15 -3 16 -23 1 -16 10 -40 19 -54 10 -16 15 -39 12 -64 -2 -22 0
-37 4 -35 14 9 19 64 9 101 -6 21 -14 79 -19 129 -6 64 -17 109 -37 150 -43
94 -58 130 -47 119 21 -21 82 -155 92 -202 11 -59 35 -192 51 -296 l13 -77
265 2 266 3 13 60 c23 110 4 252 -47 353 -48 95 -73 113 -202 151 -190 55
-323 102 -336 118 -7 9 -22 45 -34 81 -25 76 -18 114 37 198 91 136 124 326
91 519 -19 111 -30 259 -31 430 -1 105 -5 140 -21 180 -11 28 -23 52 -26 55
-3 3 -14 20 -23 38 -9 17 -21 32 -26 32 -6 0 -10 9 -10 19 0 31 -44 75 -158
161 -74 56 -115 80 -135 80 -15 0 -40 9 -55 20 -20 15 -54 24 -118 30 -116 12
-115 12 -209 -14z m225 -301 c-6 -15 -6 -26 0 -30 6 -4 10 -1 10 5 0 7 8 9 20
5 13 -4 20 -2 20 6 0 10 3 10 13 0 10 -11 9 -14 -1 -18 -6 -3 -9 -9 -6 -15 4
-6 0 -14 -7 -19 -11 -7 -11 -9 -1 -9 7 0 15 7 18 15 4 11 11 12 24 5 14 -7 20
-4 29 17 9 19 15 23 23 15 6 -6 25 -9 42 -6 27 4 28 3 9 -5 -13 -6 -23 -14
-23 -19 0 -18 13 -21 34 -7 14 10 26 11 36 5 12 -8 11 -10 -7 -10 -12 0 -24
-4 -27 -8 -2 -4 17 -7 44 -6 74 2 101 -21 153 -129 62 -127 80 -218 41 -203
-23 9 -81 -14 -143 -55 -65 -43 -81 -61 -63 -67 8 -2 7 -13 -2 -40 -13 -40 -7
-123 7 -89 4 10 7 27 7 37 0 10 5 22 11 26 8 4 9 0 4 -15 -5 -16 -3 -20 10
-15 9 4 14 13 11 20 -8 20 15 30 25 11 17 -30 96 8 84 41 -7 18 13 15 24 -5 7
-14 2 -22 -27 -40 -37 -23 -37 -23 -7 -17 17 3 37 8 45 11 8 4 23 5 33 4 9 -1
17 2 17 7 0 9 36 9 46 0 3 -3 7 -12 8 -20 2 -7 6 -20 9 -28 29 -78 35 -205 12
-271 -10 -27 -12 -46 -5 -53 12 -16 -13 -110 -51 -191 -16 -34 -42 -106 -58
-160 -32 -104 -53 -135 -113 -166 -45 -23 -151 -25 -188 -4 -29 16 -44 19 -36
6 4 -5 -8 -5 -27 -1 -120 31 -177 50 -177 60 0 5 -6 7 -14 4 -8 -3 -21 4 -29
16 -8 12 -38 45 -66 75 -29 30 -66 76 -84 102 -18 26 -41 58 -51 69 -24 28
-52 103 -88 239 -23 86 -29 133 -30 215 -1 114 11 154 54 184 12 9 18 16 13
16 -6 0 -2 5 7 11 10 5 23 20 29 32 11 21 10 21 -17 -3 l-28 -25 22 29 c26 34
29 54 5 35 -12 -10 -10 -3 7 26 13 22 30 48 38 58 13 15 13 17 -1 17 -10 0
-17 7 -17 15 0 8 6 15 13 15 9 0 8 3 -2 9 -11 7 -9 12 10 21 50 27 55 66 7 56
-24 -4 -29 -3 -18 4 8 5 28 10 43 10 17 0 26 4 22 10 -4 6 -3 10 2 9 21 -4 32
2 27 15 -4 12 1 14 22 10 l28 -5 -27 21 c-15 12 -27 26 -27 33 0 6 7 2 15 -9
8 -10 15 -16 15 -12 0 4 12 3 26 -2 19 -8 23 -7 18 2 -4 7 -9 22 -10 35 -2 22
-2 22 14 6 16 -16 17 -14 23 23 3 21 7 30 9 19 1 -11 2 -23 1 -27 -2 -17 19
-7 29 13 7 11 18 18 25 15 8 -3 21 1 29 9 11 11 16 12 19 2 3 -6 11 3 18 21
15 37 33 44 19 7z"/>
<path d="M2145 1198 c-72 -10 -96 -18 -91 -27 3 -4 20 -6 38 -3 63 9 19 -10
-68 -29 -53 -11 -127 -19 -186 -19 -54 0 -98 -4 -98 -8 0 -8 53 -42 65 -42 4
0 5 6 2 14 -5 12 4 15 43 14 27 0 52 2 57 5 8 5 90 17 148 22 17 2 43 8 58 14
16 6 33 11 39 11 13 0 1 -52 -15 -63 -27 -18 -70 -39 -89 -42 -27 -6 -36 -15
-14 -15 24 0 83 26 113 50 36 28 40 18 14 -38 -23 -49 -53 -72 -116 -88 l-30
-8 27 -4 c34 -4 118 32 139 61 21 29 33 83 20 91 -6 4 -3 23 9 52 30 70 34 67
-65 52z"/>
</g>
</svg>
